# xmcd
#
# Track frame offsets: 
#        150
#        21188
#        46614
#        73490
#        93676
#        113384
#        139557
#        155992
#        180268
#
# Disc length: 2847 seconds
#
# Revision: 0
# Processed by: cddbd v1.5.2PL0 Copyright (c) Steve Scherf et al.
# Submitted via: ExactAudioCopyFreeDBPlugin 1.0
#
DISCID=720b1d09
DTITLE=Roland Van Campenhout, Nils De Caster and Richard Bargel - Just A
DTITLE=nother Place In The Universe
DYEAR=2015
DGENRE=Blues
TTITLE0=Footsteps Fall
TTITLE1=Jelly Roll Baker
TTITLE2=Never Too Soon
TTITLE3=Last Letter Home
TTITLE4=Little Sadie
TTITLE5=900 Miles
TTITLE6=Two Old Mules 
TTITLE7=Way Beyond The Moon
TTITLE8=Fine sugar mamma 
EXTD=
EXTT0=
EXTT1=
EXTT2=
EXTT3=
EXTT4=
EXTT5=
EXTT6=
EXTT7=
EXTT8=
PLAYORDER=
